<?xml version="1.0" encoding="UTF-8"?>
<svg id="Calque_10" data-name="Calque 10" xmlns="http://www.w3.org/2000/svg" viewBox="0 0 3686.97 1467.5">
  <defs>
    <style>
      .cls-1 {
        fill: #5f7884;
      }

      .cls-2 {
        fill: none;
      }

      .cls-3 {
        fill: #545353;
      }
    </style>
  </defs>
  <g>
    <path class="cls-2" d="M742.62,379.83l-.45-1.38h0l-83.2-252.62h-5.92l-72.34,204.77h0l-.2.56c36.64,7.27,74.95,17.19,112.77,30,17.91,6.07,35.38,12.81,49.34,18.67Z"/>
    <path class="cls-2" d="M806.33,573.3l-32.33-98.18h0l-.47-1.44c-31.15-20.8-59.99-44.13-116.89-70.63-29.33-13.66-60.25-25.28-89.4-34.34l-.2.57h0l-32.36,91.6h0c28.33,6.49,58.13,14.75,87.06,24.55,101.71,34.45,128.89,64.24,184.6,87.86Z"/>
    <path class="cls-1" d="M99.46,361.16c.5,5.14,204.92-60.88,435.52-1.59l12.19-34.36c-246.85-39.09-448.21,30.84-447.71,35.94Z"/>
    <path class="cls-1" d="M773.53,473.68l-30.91-93.85c-13.96-5.85-31.43-12.6-49.34-18.67-37.82-12.81-76.13-22.74-112.77-30l-13.27,37.56c29.15,9.06,60.07,20.68,89.4,34.34,56.91,26.5,85.74,49.83,116.89,70.63Z"/>
    <path class="cls-1" d="M830.07,637.75l-4.18-16.07-2.72-7.69-14.05-39.61-1.3-.55-1.48-.53c-55.71-23.62-82.89-53.41-184.6-87.86-28.93-9.8-58.73-18.05-87.06-24.54l-14.21,40.22h0c21.17,7.43,43.42,16.34,64.63,26.22,104,48.43,107.38,81.76,220.15,120.02,6.9,2.34,29.87,9.45,40.47,12.53l-12.39-12.59-3.25-9.54Z"/>
    <path class="cls-3" d="M1328.34,458c-95.69,24.83-233.37,44.09-378.2,13.47h0c-.42-.09-.83-.17-1.25-.26-39.95-8.6-67.44-19.52-90.13-30.7l-1.13-3.48h0L715.22,0h-102.15v8.88l22.2,68.1-87.8,247.37h0l-.31.87-12.19,34.36-.3.84h0l-33.04,93.07h0l-.17.49-13.06,36.79h0s-177.33,499.62-177.33,499.62v8.88h219.1v-8.88c-151-56.26-155.44-75.5-79.94-288.68l19.24-54.78,1.56-4.54,6.16-19c0-.13.53-1.32.54-1.44l.55-1.46,42.18-119.38h0s14.21-40.22,14.21-40.22h0s32.36-91.6,32.36-91.6h0l.2-.57,13.27-37.56.2-.56h0l72.34-204.77h5.92l83.2,252.62h0l.45,1.38,30.91,93.85.47,1.44h0l32.33,98.18.27.83h0l15.2,46.16.39,1.32,5.32,16.04,3.17,9.29,2.75,8.29.86,2.6h0l94.1,283.71-127.31,48.85v8.88h236.86v-8.88l-101.11-310.3h0c24.75,3.44,54.58,5.56,83.21,5.89h0c.34.01.69.01,1.04.01.18,0,.35,0,.53,0h0c54.61.36,115.24-6.69,178.02-27.5,1.37-.6,2.91-1.19,3.47-1.35,9.89-3.49,14.26-4.92,25.35-8.99,8.38-3.08,14.73-6.12,20.1-8.85.49-.24.97-.48,1.46-.71.34-.16.67-.31,1.01-.46,0-.01,0-.02,0-.04,77.85-38.28,141.7-103.18,141.7-103.18,0,0-53.06,25.35-133.54,46.71-12.84,3.28-24.02,6.16-38.33,9.25-.84.17-1.11.26-1.85.38-.13.02-.02.04-.65.13-63.15,13.61-139.42,23.28-221.87,19.4-26.75-1.32-57.39-4.83-85.27-9.34l-23.33-71.6h0l-1.36-4.17c20.04,6.6,50.35,16.41,86.61,23.64h0c.09.02.19.04.28.06.75.15,1.51.3,2.27.45v-.02c70.12,13.37,166.99,20.42,268.64-7.42,11.87-3.25,21.9-6.93,33.94-11.16,25.14-44.33,63.41-67.77,99.63-80.4,20.16-7.03,39.72-10.53,56.1-12.04,19.01-16.41,35.72-34.08,35.72-34.08,0,0-57.91,31.65-141.37,53.3Z"/>
    <path class="cls-1" d="M488.41,490.77l13.06-36.79c-258.47-48.43-474.07,26.17-473.55,31.45.52,5.32,219.79-65.74,460.49,5.34h0Z"/>
  </g>
  <g>
    <path class="cls-3" d="M1334.7,969.62c-43.22-25.64-77.3-61.36-102.2-107.14s-37.36-97.62-37.36-155.5c0-72.53,19.05-132.05,57.14-178.58,38.09-46.52,80.03-80.03,125.81-100.55,45.78-20.5,79.31-30.77,100.56-30.77,52.75,0,96.7,8.44,131.86,25.28s59.34,38.09,72.53,63.73l-53.84,106.58h-6.59c2.92-10.97,4.39-21.95,4.39-32.95,0-38.83-16.86-68.86-50.55-90.11-33.7-21.25-74.36-31.88-121.97-31.88-27.84,0-57.16,5.5-87.92,16.48-30.77,11-58.05,33.34-81.86,67.03-23.81,33.7-35.72,81.33-35.72,142.86,0,52.75,11.17,102.02,33.52,147.8,22.34,45.8,54.02,82.42,95.05,109.89s88.28,41.2,141.77,41.2c27.84,0,51.09-3.11,69.78-9.33,18.67-6.22,41.94-16.3,69.78-30.23l4.39,7.7c-32.97,18.31-69.06,35.72-108.25,52.2-39.19,16.47-65.02,24.72-77.45,24.72-52.03,0-99.64-12.81-142.86-38.45Z"/>
    <path class="cls-3" d="M2096.22,1095.98c17.58,0,31.12-2.58,40.66-7.69,9.53-5.14,16.67-12.11,21.44-20.89,4.75-8.8,10.06-22.34,15.94-40.66,2.92-10.25,5.48-17.95,7.69-23.08h5.48l-1.09,137.36-2.2,3.3h-371.42v-5.48l202.2-130.77-1.09-2.2c-10.27,1.47-16.86,2.2-19.78,2.2-57.88,0-107.33-14.28-148.36-42.86-41.03-28.56-72.16-66.11-93.41-112.64-21.25-46.52-31.86-96.14-31.86-148.89,0-68.86,15.92-126.19,47.8-171.97,31.86-45.78,68.48-79.48,109.89-101.11,41.39-21.61,75.27-32.42,101.64-32.42,57.88,0,107.31,14.3,148.34,42.86,41.03,28.58,72.16,66.12,93.41,112.64,21.25,46.53,31.88,96.16,31.88,148.89,0,63.75-14.11,117.78-42.31,162.09-28.2,44.33-63.19,79.31-104.94,104.94l2.2-1.09-204.39,125.27v2.2h192.3ZM1798.97,809.17c20.14,46.16,49.08,83.53,86.81,112.09,37.72,28.56,81.86,42.84,132.42,42.84s96.88-17.75,132.41-53.28,53.3-91.39,53.3-167.59c0-54.2-10.62-104.38-31.88-150.53s-50.73-82.97-88.45-110.44-80.77-41.22-129.11-41.22c-52.75,0-96.89,17.59-132.42,52.75-35.53,35.17-53.3,91.22-53.3,168.12,0,52.02,10.06,101.09,30.22,147.25Z"/>
    <path class="cls-3" d="M2812.67,964.11l83.52,29.67v5.5h-148.34v-70.33c-30.05,20.52-62.47,38.83-97.27,54.95-34.8,16.11-58.42,24.17-70.86,24.17-64.47,0-114.66-15.02-150.55-45.05-35.91-30.03-53.84-74.73-53.84-134.08v-387.91l-82.42-29.67v-5.48h148.34v413.17c0,50.56,14.47,86.83,43.41,108.8,28.94,21.98,66.84,32.97,113.73,32.97,30.03,0,55.31-4.03,75.83-12.09,20.5-8.06,45.05-21.25,73.62-39.56l1.09-468.12-82.41-29.67v-5.48h147.25l-1.11,558.22Z"/>
    <path class="cls-3" d="M3198.37,405.89l220.88,587.89v5.5h-167.02v-5.5l85.7-29.67-65.94-172.52h-247.23l-6.59,16.48c-11.73,28.58-20.34,50.92-25.84,67.03-5.5,16.12-8.23,30.41-8.23,42.86,0,16.84,6.59,30.95,19.78,42.3,13.19,11.36,35.53,22.53,67.03,33.52v5.5h-153.84v-5.5l221.98-537.34-16.48-45.06v-5.48h75.81ZM3151.12,485l-117.58,286.81h230.77l-108.78-286.81h-4.41Z"/>
  </g>
  <g>
    <path class="cls-1" d="M1613.7,1251.26c5.84,0,11.3.77,16.38,2.3,5.08,1.53,9.53,3.86,13.36,6.99,3.83,3.13,6.82,6.99,8.97,11.58,2.16,4.59,3.24,10.02,3.24,16.28,0,4.46-.8,8.7-2.4,12.73-1.6,4.04-3.79,7.58-6.57,10.64-2.78,3.06-6.09,5.53-9.91,7.41-3.83,1.88-8.04,2.96-12.63,3.23v.42c4.87.14,9.5,1.08,13.88,2.82,4.38,1.74,8.21,4.17,11.48,7.3,3.27,3.13,5.88,6.96,7.83,11.48,1.95,4.52,2.92,9.64,2.92,15.34,0,6.68-1.22,12.56-3.65,17.64-2.44,5.08-5.81,9.29-10.12,12.63-4.31,3.34-9.5,5.88-15.55,7.62-6.05,1.74-12.63,2.61-19.72,2.61h-61.57v-149.02h64.08ZM1613.7,1320.55c5.01,0,9.77-.66,14.3-1.98,4.52-1.32,8.52-3.34,12-6.05,3.48-2.71,6.26-6.08,8.35-10.12,2.09-4.03,3.13-8.69,3.13-13.98,0-5.7-.98-10.61-2.92-14.71-1.95-4.1-4.63-7.51-8.04-10.23-3.41-2.71-7.41-4.73-12-6.05-4.59-1.32-9.53-1.98-14.82-1.98h-59.9v65.12h59.9ZM1613.07,1396.11c6.12,0,11.79-.73,17.01-2.19,5.22-1.46,9.74-3.68,13.57-6.68,3.83-2.99,6.85-6.75,9.08-11.27,2.22-4.52,3.34-9.84,3.34-15.97,0-6.54-1.22-12.03-3.65-16.49-2.44-4.45-5.64-8.07-9.6-10.85-3.97-2.78-8.49-4.8-13.57-6.05-5.08-1.25-10.26-1.88-15.55-1.88h-59.9v71.38h59.27Z"/>
    <path class="cls-1" d="M1679.33,1367.62c1.6,6.19,4.07,11.58,7.41,16.18,3.34,4.59,7.65,8.21,12.94,10.85,5.29,2.65,11.76,3.97,19.41,3.97,11.27,0,20.63-2.95,28.07-8.87,7.44-5.91,12.07-14.78,13.88-26.61h4.17c-1.53,12.52-6.47,22.23-14.82,29.12-8.35,6.89-18.65,10.33-30.89,10.33-8.35.14-15.48-1.18-21.39-3.97-5.92-2.78-10.75-6.71-14.51-11.79-3.76-5.08-6.54-11.06-8.35-17.95-1.81-6.89-2.71-14.3-2.71-22.23,0-8.9,1.32-16.83,3.97-23.79,2.64-6.96,6.12-12.84,10.44-17.64,4.31-4.8,9.32-8.45,15.03-10.96,5.7-2.5,11.55-3.76,17.53-3.76,8.35,0,15.55,1.6,21.6,4.8,6.05,3.2,10.99,7.45,14.82,12.73,3.83,5.29,6.61,11.34,8.35,18.16,1.74,6.82,2.47,13.92,2.19,21.29h-89.75c.14,7.24,1.01,13.95,2.61,20.14ZM1759.58,1324.62c-1.81-5.91-4.49-11.09-8.04-15.55-3.55-4.45-7.97-7.96-13.25-10.54-5.29-2.57-11.41-3.86-18.37-3.86-5.84,0-11.31,1.12-16.38,3.34-5.08,2.23-9.53,5.46-13.36,9.71-3.83,4.25-6.92,9.36-9.29,15.34-2.37,5.98-3.76,12.73-4.17,20.25h85.57c0-6.54-.91-12.76-2.71-18.68Z"/>
    <path class="cls-1" d="M1786.09,1312.1c1.81-4.38,4.42-8.17,7.83-11.38,3.41-3.2,7.58-5.7,12.52-7.51,4.94-1.81,10.75-2.71,17.43-2.71,4.73,0,9.22.49,13.46,1.46,4.24.97,7.96,2.68,11.17,5.11,3.2,2.44,5.77,5.6,7.72,9.5,1.95,3.9,2.99,8.77,3.13,14.61v68.25c0,2.09.42,3.62,1.25,4.59.84.98,1.95,1.64,3.34,1.98,1.39.35,2.89.49,4.49.42,1.6-.07,3.09-.17,4.49-.31v4.17h-6.26c-3.06,0-5.74-.73-8.04-2.19-2.29-1.46-3.44-4.21-3.44-8.24v-13.98h-.42c-1.12,3.48-2.89,6.82-5.32,10.02-2.44,3.2-5.5,6.05-9.18,8.56-3.69,2.5-7.9,4.49-12.63,5.95-4.73,1.46-9.88,2.19-15.44,2.19-10.85,0-19.55-2.4-26.09-7.2-6.54-4.8-9.81-12-9.81-21.6,0-6.68,1.08-12.03,3.23-16.07,2.16-4.03,4.97-7.2,8.45-9.5,3.48-2.3,7.44-3.89,11.9-4.8,4.45-.9,8.9-1.49,13.36-1.77,7.37-.42,13.7-.8,18.99-1.15,5.29-.35,9.63-1.04,13.04-2.09,3.41-1.04,5.91-2.64,7.51-4.8,1.6-2.16,2.4-5.25,2.4-9.29,0-3.2-.28-6.54-.84-10.02-.56-3.48-1.91-6.68-4.07-9.6-2.16-2.92-5.32-5.32-9.5-7.2-4.17-1.88-9.81-2.82-16.91-2.82-11.27,0-20.04,2.75-26.3,8.24-6.26,5.5-9.74,13.25-10.44,23.27h-4.17c.28-5.01,1.32-9.71,3.13-14.09ZM1854.76,1337.25c-1.39,1.95-3.55,3.44-6.47,4.49-2.92,1.04-6.26,1.85-10.02,2.4-3.76.56-7.83.91-12.21,1.04-4.38.14-8.66.35-12.84.63-4.17.28-8.24.8-12.21,1.57-3.97.77-7.48,2.16-10.54,4.17-3.06,2.02-5.5,4.8-7.3,8.35-1.81,3.55-2.71,8.18-2.71,13.88,0,3.06.52,6.09,1.57,9.08,1.04,2.99,2.82,5.64,5.32,7.93,2.5,2.3,5.74,4.17,9.71,5.63,3.97,1.46,8.87,2.19,14.71,2.19,6.96,0,13.15-1.18,18.58-3.55,5.43-2.36,9.98-5.46,13.67-9.29,3.69-3.83,6.47-8.24,8.35-13.25,1.88-5.01,2.82-10.16,2.82-15.45v-19.83h-.42Z"/>
    <path class="cls-1" d="M1960.78,1400.28v-26.51h-.42c-1.95,8.35-6.23,15.24-12.84,20.66-6.61,5.43-15.2,8.14-25.78,8.14-5.57,0-10.68-.8-15.34-2.4-4.66-1.6-8.7-4.03-12.1-7.3-3.41-3.27-6.05-7.3-7.93-12.11-1.88-4.8-2.82-10.33-2.82-16.59v-71.17h4.17v70.55c0,6.26.9,11.58,2.71,15.97,1.81,4.38,4.28,8,7.41,10.85,3.13,2.85,6.75,4.94,10.85,6.26,4.1,1.32,8.45,1.98,13.04,1.98,6.4,0,12.03-1.22,16.91-3.65,4.87-2.43,8.94-5.7,12.21-9.81,3.27-4.1,5.74-8.87,7.41-14.3,1.67-5.43,2.5-11.13,2.5-17.11v-60.74h4.17v107.28h-4.17Z"/>
    <path class="cls-1" d="M1999.39,1379.41c0,4.04.45,7.17,1.36,9.39.9,2.23,2.05,3.9,3.44,5.01,1.39,1.12,2.92,1.77,4.59,1.98s3.34.31,5.01.31c2.09,0,3.97-.03,5.64-.1,1.67-.07,2.85-.24,3.55-.52v4.17c-1.25.14-2.47.28-3.65.42-1.18.14-3.38.21-6.57.21-4.87,0-9.01-1.42-12.42-4.28-3.41-2.85-5.11-8.1-5.11-15.76v-83.07h-19.62v-4.17h19.62v-33.81h4.17v33.81h24.21v4.17h-24.21v82.23Z"/>
    <path class="cls-1" d="M2114.19,1293l-49.46,128.99c-1.39,3.62-3.06,6.43-5.01,8.45-1.95,2.02-4.11,3.51-6.47,4.49-2.37.97-4.98,1.57-7.83,1.77-2.85.21-5.88.31-9.08.31v-4.17c3.62,0,6.71-.1,9.29-.31,2.57-.21,4.8-.77,6.68-1.67,1.88-.91,3.55-2.3,5.01-4.17,1.46-1.88,2.82-4.42,4.07-7.62l7.72-19.83-44.67-106.24h4.38l42.58,101.64,38.4-101.64h4.38Z"/>
    <path class="cls-1" d="M2243.59,1251.26c5.84,0,11.3.77,16.38,2.3,5.08,1.53,9.53,3.86,13.36,6.99,3.83,3.13,6.82,6.99,8.97,11.58,2.16,4.59,3.23,10.02,3.23,16.28,0,4.46-.8,8.7-2.4,12.73-1.6,4.04-3.79,7.58-6.57,10.64-2.79,3.06-6.09,5.53-9.91,7.41-3.83,1.88-8.04,2.96-12.63,3.23v.42c4.87.14,9.5,1.08,13.88,2.82,4.38,1.74,8.21,4.17,11.48,7.3,3.27,3.13,5.88,6.96,7.83,11.48,1.95,4.52,2.92,9.64,2.92,15.34,0,6.68-1.22,12.56-3.65,17.64-2.44,5.08-5.81,9.29-10.12,12.63-4.31,3.34-9.5,5.88-15.55,7.62-6.05,1.74-12.63,2.61-19.72,2.61h-61.57v-149.02h64.08ZM2243.59,1320.55c5.01,0,9.77-.66,14.3-1.98,4.52-1.32,8.52-3.34,12-6.05,3.48-2.71,6.26-6.08,8.35-10.12,2.09-4.03,3.13-8.69,3.13-13.98,0-5.7-.98-10.61-2.92-14.71-1.95-4.1-4.63-7.51-8.04-10.23-3.41-2.71-7.41-4.73-12-6.05-4.59-1.32-9.53-1.98-14.82-1.98h-59.9v65.12h59.9ZM2242.96,1396.11c6.12,0,11.79-.73,17.01-2.19,5.22-1.46,9.74-3.68,13.57-6.68,3.83-2.99,6.85-6.75,9.08-11.27,2.22-4.52,3.34-9.84,3.34-15.97,0-6.54-1.22-12.03-3.65-16.49-2.44-4.45-5.64-8.07-9.6-10.85-3.96-2.78-8.49-4.8-13.57-6.05-5.08-1.25-10.26-1.88-15.55-1.88h-59.9v71.38h59.28Z"/>
    <path class="cls-1" d="M2311.63,1312.1c1.81-4.38,4.42-8.17,7.83-11.38,3.41-3.2,7.58-5.7,12.52-7.51,4.94-1.81,10.75-2.71,17.43-2.71,4.73,0,9.22.49,13.46,1.46,4.24.97,7.96,2.68,11.17,5.11,3.2,2.44,5.77,5.6,7.72,9.5,1.95,3.9,2.99,8.77,3.13,14.61v68.25c0,2.09.42,3.62,1.25,4.59.83.98,1.95,1.64,3.34,1.98,1.39.35,2.89.49,4.49.42,1.6-.07,3.09-.17,4.49-.31v4.17h-6.26c-3.06,0-5.74-.73-8.04-2.19s-3.44-4.21-3.44-8.24v-13.98h-.42c-1.12,3.48-2.89,6.82-5.32,10.02-2.44,3.2-5.5,6.05-9.18,8.56-3.69,2.5-7.9,4.49-12.63,5.95-4.73,1.46-9.88,2.19-15.45,2.19-10.85,0-19.55-2.4-26.09-7.2-6.54-4.8-9.81-12-9.81-21.6,0-6.68,1.08-12.03,3.24-16.07,2.16-4.03,4.97-7.2,8.45-9.5,3.48-2.3,7.44-3.89,11.9-4.8,4.45-.9,8.9-1.49,13.36-1.77,7.37-.42,13.7-.8,18.99-1.15,5.29-.35,9.63-1.04,13.04-2.09,3.41-1.04,5.91-2.64,7.51-4.8,1.6-2.16,2.4-5.25,2.4-9.29,0-3.2-.28-6.54-.83-10.02-.56-3.48-1.91-6.68-4.07-9.6-2.16-2.92-5.32-5.32-9.5-7.2-4.17-1.88-9.81-2.82-16.91-2.82-11.27,0-20.04,2.75-26.3,8.24-6.26,5.5-9.74,13.25-10.44,23.27h-4.17c.28-5.01,1.32-9.71,3.13-14.09ZM2380.29,1337.25c-1.39,1.95-3.55,3.44-6.47,4.49-2.92,1.04-6.26,1.85-10.02,2.4-3.76.56-7.83.91-12.21,1.04-4.38.14-8.66.35-12.84.63-4.17.28-8.24.8-12.21,1.57-3.97.77-7.48,2.16-10.54,4.17-3.06,2.02-5.5,4.8-7.3,8.35-1.81,3.55-2.71,8.18-2.71,13.88,0,3.06.52,6.09,1.57,9.08,1.04,2.99,2.82,5.64,5.32,7.93,2.5,2.3,5.74,4.17,9.71,5.63,3.97,1.46,8.87,2.19,14.71,2.19,6.96,0,13.15-1.18,18.58-3.55,5.43-2.36,9.98-5.46,13.67-9.29,3.69-3.83,6.47-8.24,8.35-13.25,1.88-5.01,2.82-10.16,2.82-15.45v-19.83h-.42Z"/>
    <path class="cls-1" d="M2409.09,1400.28v-107.28h4.17v26.51h.42c.97-4.03,2.5-7.83,4.59-11.38,2.09-3.55,4.87-6.64,8.35-9.29,3.48-2.64,7.62-4.73,12.42-6.26,4.8-1.53,10.4-2.22,16.8-2.09v4.17c-7.38-.42-13.74.59-19.1,3.03-5.36,2.44-9.78,5.78-13.25,10.02-3.48,4.25-6.05,9.15-7.72,14.71-1.67,5.57-2.5,11.27-2.5,17.12v60.74h-4.17Z"/>
  </g>
</svg>